<?xml version="1.0" encoding="UTF-8" standalone="no"?>
<!-- Generator: Adobe Illustrator 19.0.0, SVG Export Plug-In . SVG Version: 6.00 Build 0)  -->

<svg
   version="1.1"
   id="Playing_Card_Back"
   x="0px"
   y="0px"
   viewBox="0 0 500 726"
   xml:space="preserve"
   sodipodi:docname="card-back-ink.svg"
   width="500"
   height="726"
   inkscape:version="1.3.2 (091e20e, 2023-11-25, custom)"
   xmlns:inkscape="http://www.inkscape.org/namespaces/inkscape"
   xmlns:sodipodi="http://sodipodi.sourceforge.net/DTD/sodipodi-0.dtd"
   xmlns:xlink="http://www.w3.org/1999/xlink"
   xmlns="http://www.w3.org/2000/svg"
   xmlns:svg="http://www.w3.org/2000/svg"><defs
   id="defs1053" /><sodipodi:namedview
   id="namedview1053"
   pagecolor="#ffffff"
   bordercolor="#000000"
   borderopacity="0.25"
   inkscape:showpageshadow="2"
   inkscape:pageopacity="0.0"
   inkscape:pagecheckerboard="0"
   inkscape:deskcolor="#d1d1d1"
   inkscape:zoom="0.70710678"
   inkscape:cx="425.67828"
   inkscape:cy="426.38539"
   inkscape:window-width="1920"
   inkscape:window-height="991"
   inkscape:window-x="-9"
   inkscape:window-y="-9"
   inkscape:window-maximized="1"
   inkscape:current-layer="g436" />
<style
   type="text/css"
   id="style1">
	.st0{fill:#3B140D;}
	.st1{fill:#964921;}
	.st2{fill:#FFFFFF;}
	.st3{fill:#939598;}
	.st4{clip-path:url(#XMLID_6_);}
	.st5{fill:#3B4B9F;}
	.st6{fill:#C02426;}
	.st7{fill:#F7F2E7;}
	.st8{fill:#00A651;}
	.st9{clip-path:url(#XMLID_7_);}
	.st10{clip-path:url(#XMLID_8_);}
</style>

<g
   id="g436"
   transform="matrix(1.6644353,0,0,1.6644353,-381.24128,-80.95036)">
	<g
   id="g134"
   transform="matrix(1.0770178,0,0,1.0076776,-30.496882,-1.3826437)">
		<path
   class="st2"
   d="M 513.4,482 H 247.6 c -3.3,0 -6,-2.7 -6,-6 V 56.2 c 0,-3.3 2.7,-6 6,-6 h 265.8 c 3.3,0 6,2.7 6,6 V 476 c 0,3.3 -2.7,6 -6,6 z"
   id="path133" />
		<path
   class="st3"
   d="M 513.4,482.5 H 247.6 c -3.6,0 -6.5,-2.9 -6.5,-6.5 V 56.2 c 0,-3.6 2.9,-6.5 6.5,-6.5 h 265.8 c 3.6,0 6.5,2.9 6.5,6.5 V 476 c 0,3.6 -2.9,6.5 -6.5,6.5 z M 247.6,50.8 c -3,0 -5.5,2.5 -5.5,5.5 V 476 c 0,3 2.5,5.5 5.5,5.5 h 265.8 c 3,0 5.5,-2.5 5.5,-5.5 V 56.2 c 0,-3 -2.5,-5.5 -5.5,-5.5 H 247.6 Z"
   id="path134" />
	</g>
	<g
   id="g435"
   transform="matrix(1.0721634,0,0,1.0031357,-29.696566,-1.6944192)">
		<defs
   id="defs134">
			<path
   id="XMLID_1_"
   d="M 254.6,468 V 64.3 c 0,-0.6 0.4,-1 1,-1 h 249.8 c 0.5,0 1,0.4 1,1 V 468 c 0,0.6 -0.5,1 -1,1 H 255.6 c -0.5,0 -1,-0.5 -1,-1 z" />
		</defs>
		<use
   xlink:href="#XMLID_1_"
   style="overflow:visible;fill:#d91e38"
   id="use134" />
		<clipPath
   id="XMLID_6_">
			<use
   xlink:href="#XMLID_1_"
   style="overflow:visible"
   id="use135" />
		</clipPath>
		<g
   class="st4"
   clip-path="url(#XMLID_6_)"
   id="g434">
			<path
   class="st2"
   d="m 254.5,81.2 -8.1,-17.6 8.1,-17.6 8.1,17.6 z m -5.2,-17.6 5.2,11.3 5.2,-11.3 -5.2,-11.3 z"
   id="path135" />
			<path
   class="st2"
   d="m 267.8,81.2 -8.1,-17.6 8.1,-17.6 8.1,17.6 z m -5.2,-17.6 5.2,11.3 5.2,-11.3 -5.2,-11.3 z"
   id="path136" />
			<path
   class="st2"
   d="m 281,81.2 -8,-17.6 8,-17.6 8.1,17.6 z M 275.8,63.6 281,74.9 286.2,63.6 281,52.3 Z"
   id="path137" />
			<path
   class="st2"
   d="m 294.3,81.2 -8.1,-17.6 8.1,-17.6 8.1,17.6 z m -5.2,-17.6 5.2,11.3 5.2,-11.3 -5.2,-11.3 z"
   id="path138" />
			<path
   class="st2"
   d="m 307.6,81.2 -8.1,-17.6 8.1,-17.6 8.1,17.6 z m -5.2,-17.6 5.2,11.3 5.2,-11.3 -5.2,-11.3 z"
   id="path139" />
			<path
   class="st2"
   d="m 320.8,81.2 -8.1,-17.6 8.1,-17.6 8.1,17.6 z m -5.2,-17.6 5.2,11.3 5.2,-11.3 -5.2,-11.3 z"
   id="path140" />
			<path
   class="st2"
   d="M 334.1,81.2 326,63.6 334.1,46 l 8.1,17.6 z m -5.2,-17.6 5.2,11.3 5.2,-11.3 -5.2,-11.3 z"
   id="path141" />
			<path
   class="st2"
   d="m 347.3,81.2 -8.1,-17.6 8.1,-17.6 8.1,17.6 z m -5.2,-17.6 5.2,11.3 5.2,-11.3 -5.2,-11.3 z"
   id="path142" />
			<path
   class="st2"
   d="m 360.6,81.2 -8.1,-17.6 8.1,-17.6 8.1,17.6 z m -5.2,-17.6 5.2,11.3 5.2,-11.3 -5.2,-11.3 z"
   id="path143" />
			<path
   class="st2"
   d="M 373.9,81.2 365.8,63.6 373.9,46 382,63.6 Z m -5.2,-17.6 5.2,11.3 5.2,-11.3 -5.2,-11.3 z"
   id="path144" />
			<path
   class="st2"
   d="M 387.1,81.2 379,63.6 387.1,46 l 8.1,17.6 z m -5.2,-17.6 5.2,11.3 5.2,-11.3 -5.2,-11.3 z"
   id="path145" />
			<path
   class="st2"
   d="m 400.4,81.2 -8.1,-17.6 8.1,-17.6 8.1,17.6 z m -5.2,-17.6 5.2,11.3 5.2,-11.3 -5.2,-11.3 z"
   id="path146" />
			<path
   class="st2"
   d="m 413.7,81.2 -8.1,-17.6 8.1,-17.6 8.1,17.6 z m -5.2,-17.6 5.2,11.3 5.2,-11.3 -5.2,-11.3 z"
   id="path147" />
			<path
   class="st2"
   d="M 426.9,81.2 418.8,63.6 426.9,46 435,63.6 Z m -5.2,-17.6 5.2,11.3 5.2,-11.3 -5.2,-11.3 z"
   id="path148" />
			<path
   class="st2"
   d="m 440.2,81.2 -8.1,-17.6 8.1,-17.6 8.1,17.6 z m -5.2,-17.6 5.2,11.3 5.2,-11.3 -5.2,-11.3 z"
   id="path149" />
			<path
   class="st2"
   d="m 453.5,81.2 -8.1,-17.6 8.1,-17.6 8.1,17.6 z m -5.2,-17.6 5.2,11.3 5.2,-11.3 -5.2,-11.3 z"
   id="path150" />
			<path
   class="st2"
   d="m 466.7,81.2 -8.1,-17.6 8.1,-17.6 8.1,17.6 z m -5.2,-17.6 5.2,11.3 5.2,-11.3 -5.2,-11.3 z"
   id="path151" />
			<path
   class="st2"
   d="M 480,81.2 471.9,63.6 480,46 488.1,63.6 Z M 474.8,63.6 480,74.9 485.2,63.6 480,52.3 Z"
   id="path152" />
			<path
   class="st2"
   d="m 493.3,81.2 -8.1,-17.6 8.1,-17.6 8.1,17.6 z m -5.2,-17.6 5.2,11.3 5.2,-11.3 -5.2,-11.3 z"
   id="path153" />
			<path
   class="st2"
   d="m 506.5,81.2 -8.1,-17.6 8.1,-17.6 8.1,17.6 z m -5.2,-17.6 5.2,11.3 5.2,-11.3 -5.2,-11.3 z"
   id="path154" />
			<path
   class="st2"
   d="m 254.5,110.1 -8.1,-17.6 8.1,-17.6 8.1,17.6 z m -5.2,-17.6 5.2,11.3 5.2,-11.3 -5.2,-11.3 z"
   id="path155" />
			<path
   class="st2"
   d="m 267.8,110.1 -8.1,-17.6 8.1,-17.6 8.1,17.6 z m -5.2,-17.6 5.2,11.3 5.2,-11.3 -5.2,-11.3 z"
   id="path156" />
			<path
   class="st2"
   d="m 281,110.1 -8,-17.6 8.1,-17.6 8.1,17.6 z m -5.2,-17.6 5.2,11.3 5.2,-11.3 -5.2,-11.3 z"
   id="path157" />
			<path
   class="st2"
   d="m 294.3,110.1 -8.1,-17.6 8.1,-17.6 8.1,17.6 z m -5.2,-17.6 5.2,11.3 5.2,-11.3 -5.2,-11.3 z"
   id="path158" />
			<path
   class="st2"
   d="m 307.6,110.1 -8.1,-17.6 8.1,-17.6 8.1,17.6 z m -5.2,-17.6 5.2,11.3 5.2,-11.3 -5.2,-11.3 z"
   id="path159" />
			<path
   class="st2"
   d="m 320.8,110.1 -8.1,-17.6 8.1,-17.6 8.1,17.6 z m -5.2,-17.6 5.2,11.3 5.2,-11.3 -5.2,-11.3 z"
   id="path160" />
			<path
   class="st2"
   d="m 334.1,110.1 -8.1,-17.6 8.1,-17.6 8.1,17.6 z m -5.2,-17.6 5.2,11.3 5.2,-11.3 -5.2,-11.3 z"
   id="path161" />
			<path
   class="st2"
   d="m 347.3,110.1 -8.1,-17.6 8.1,-17.6 8.1,17.6 z m -5.2,-17.6 5.2,11.3 5.2,-11.3 -5.2,-11.3 z"
   id="path162" />
			<path
   class="st2"
   d="m 360.6,110.1 -8.1,-17.6 8.1,-17.6 8.1,17.6 z m -5.2,-17.6 5.2,11.3 5.2,-11.3 -5.2,-11.3 z"
   id="path163" />
			<path
   class="st2"
   d="m 373.9,110.1 -8.1,-17.6 8.1,-17.6 8.1,17.6 z m -5.2,-17.6 5.2,11.3 5.2,-11.3 -5.2,-11.3 z"
   id="path164" />
			<path
   class="st2"
   d="m 387.1,110.1 -8.1,-17.6 8.1,-17.6 8.1,17.6 z m -5.2,-17.6 5.2,11.3 5.2,-11.3 -5.2,-11.3 z"
   id="path165" />
			<path
   class="st2"
   d="m 400.4,110.1 -8.1,-17.6 8.1,-17.6 8.1,17.6 z m -5.2,-17.6 5.2,11.3 5.2,-11.3 -5.2,-11.3 z"
   id="path166" />
			<path
   class="st2"
   d="m 413.7,110.1 -8.1,-17.6 8.1,-17.6 8.1,17.6 z m -5.2,-17.6 5.2,11.3 5.2,-11.3 -5.2,-11.3 z"
   id="path167" />
			<path
   class="st2"
   d="m 426.9,110.1 -8.1,-17.6 8.1,-17.6 8.1,17.6 z m -5.2,-17.6 5.2,11.3 5.2,-11.3 -5.2,-11.3 z"
   id="path168" />
			<path
   class="st2"
   d="m 440.2,110.1 -8.1,-17.6 8.1,-17.6 8.1,17.6 z m -5.2,-17.6 5.2,11.3 5.2,-11.3 -5.2,-11.3 z"
   id="path169" />
			<path
   class="st2"
   d="m 453.5,110.1 -8.1,-17.6 8.1,-17.6 8.1,17.6 z m -5.2,-17.6 5.2,11.3 5.2,-11.3 -5.2,-11.3 z"
   id="path170" />
			<path
   class="st2"
   d="m 466.7,110.1 -8.1,-17.6 8.1,-17.6 8.1,17.6 z m -5.2,-17.6 5.2,11.3 5.2,-11.3 -5.2,-11.3 z"
   id="path171" />
			<path
   class="st2"
   d="m 480,110.1 -8.1,-17.6 8.1,-17.6 8.1,17.6 z m -5.2,-17.6 5.2,11.3 5.2,-11.3 -5.2,-11.3 z"
   id="path172" />
			<path
   class="st2"
   d="m 493.3,110.1 -8.1,-17.6 8.1,-17.6 8.1,17.6 z m -5.2,-17.6 5.2,11.3 5.2,-11.3 -5.2,-11.3 z"
   id="path173" />
			<path
   class="st2"
   d="m 506.5,110.1 -8.1,-17.6 8.1,-17.6 8.1,17.6 z m -5.2,-17.6 5.2,11.3 5.2,-11.3 -5.2,-11.3 z"
   id="path174" />
			<path
   class="st2"
   d="m 254.5,139.1 -8.1,-17.6 8.1,-17.6 8.1,17.6 z m -5.2,-17.6 5.2,11.3 5.2,-11.3 -5.2,-11.3 z"
   id="path175" />
			<path
   class="st2"
   d="m 267.8,139.1 -8.1,-17.6 8.1,-17.6 8.1,17.6 z m -5.2,-17.6 5.2,11.3 5.2,-11.3 -5.2,-11.3 z"
   id="path176" />
			<path
   class="st2"
   d="m 281,139.1 -8.1,-17.6 8.1,-17.6 8.1,17.6 z m -5.2,-17.6 5.2,11.3 5.2,-11.3 -5.2,-11.3 z"
   id="path177" />
			<path
   class="st2"
   d="m 294.3,139.1 -8.1,-17.6 8.1,-17.6 8.1,17.6 z m -5.2,-17.6 5.2,11.3 5.2,-11.3 -5.2,-11.3 z"
   id="path178" />
			<path
   class="st2"
   d="m 307.6,139.1 -8.1,-17.6 8.1,-17.6 8.1,17.6 z m -5.2,-17.6 5.2,11.3 5.2,-11.3 -5.2,-11.3 z"
   id="path179" />
			<path
   class="st2"
   d="m 320.8,139.1 -8.1,-17.6 8.1,-17.6 8.1,17.6 z m -5.2,-17.6 5.2,11.3 5.2,-11.3 -5.2,-11.3 z"
   id="path180" />
			<path
   class="st2"
   d="m 334.1,139.1 -8.1,-17.6 8.1,-17.6 8.1,17.6 z m -5.2,-17.6 5.2,11.3 5.2,-11.3 -5.2,-11.3 z"
   id="path181" />
			<path
   class="st2"
   d="m 347.3,139.1 -8.1,-17.6 8.1,-17.6 8.1,17.6 z m -5.2,-17.6 5.2,11.3 5.2,-11.3 -5.2,-11.3 z"
   id="path182" />
			<path
   class="st2"
   d="m 360.6,139.1 -8.1,-17.6 8.1,-17.6 8.1,17.6 z m -5.2,-17.6 5.2,11.3 5.2,-11.3 -5.2,-11.3 z"
   id="path183" />
			<path
   class="st2"
   d="m 373.9,139.1 -8.1,-17.6 8.1,-17.6 8.1,17.6 z m -5.2,-17.6 5.2,11.3 5.2,-11.3 -5.2,-11.3 z"
   id="path184" />
			<path
   class="st2"
   d="m 387.1,139.1 -8.1,-17.6 8.1,-17.6 8.1,17.6 z m -5.2,-17.6 5.2,11.3 5.2,-11.3 -5.2,-11.3 z"
   id="path185" />
			<path
   class="st2"
   d="m 400.4,139.1 -8.1,-17.6 8.1,-17.6 8.1,17.6 z m -5.2,-17.6 5.2,11.3 5.2,-11.3 -5.2,-11.3 z"
   id="path186" />
			<path
   class="st2"
   d="m 413.7,139.1 -8.1,-17.6 8.1,-17.6 8.1,17.6 z m -5.2,-17.6 5.2,11.3 5.2,-11.3 -5.2,-11.3 z"
   id="path187" />
			<path
   class="st2"
   d="m 426.9,139.1 -8.1,-17.6 8.1,-17.6 8.1,17.6 z m -5.2,-17.6 5.2,11.3 5.2,-11.3 -5.2,-11.3 z"
   id="path188" />
			<path
   class="st2"
   d="m 440.2,139.1 -8.1,-17.6 8.1,-17.6 8.1,17.6 z m -5.2,-17.6 5.2,11.3 5.2,-11.3 -5.2,-11.3 z"
   id="path189" />
			<path
   class="st2"
   d="m 453.5,139.1 -8.1,-17.6 8.1,-17.6 8.1,17.6 z m -5.2,-17.6 5.2,11.3 5.2,-11.3 -5.2,-11.3 z"
   id="path190" />
			<path
   class="st2"
   d="m 466.7,139.1 -8.1,-17.6 8.1,-17.6 8.1,17.6 z m -5.2,-17.6 5.2,11.3 5.2,-11.3 -5.2,-11.3 z"
   id="path191" />
			<path
   class="st2"
   d="m 480,139.1 -8.1,-17.6 8.1,-17.6 8.1,17.6 z m -5.2,-17.6 5.2,11.3 5.2,-11.3 -5.2,-11.3 z"
   id="path192" />
			<path
   class="st2"
   d="m 493.3,139.1 -8.1,-17.6 8.1,-17.6 8.1,17.6 z m -5.2,-17.6 5.2,11.3 5.2,-11.3 -5.2,-11.3 z"
   id="path193" />
			<path
   class="st2"
   d="m 506.5,139.1 -8.1,-17.6 8.1,-17.6 8.1,17.6 z m -5.2,-17.6 5.2,11.3 5.2,-11.3 -5.2,-11.3 z"
   id="path194" />
			<path
   class="st2"
   d="m 254.5,168 -8.1,-17.6 8.1,-17.6 8.1,17.6 z m -5.2,-17.6 5.2,11.3 5.2,-11.3 -5.2,-11.3 z"
   id="path195" />
			<path
   class="st2"
   d="m 267.8,168 -8.1,-17.6 8.1,-17.6 8.1,17.6 z m -5.2,-17.6 5.2,11.3 5.2,-11.3 -5.2,-11.3 z"
   id="path196" />
			<path
   class="st2"
   d="m 281,168 -8.1,-17.6 8.1,-17.6 8.1,17.6 z m -5.2,-17.6 5.2,11.3 5.2,-11.3 -5.2,-11.3 z"
   id="path197" />
			<path
   class="st2"
   d="m 294.3,168 -8.1,-17.6 8.1,-17.6 8.1,17.6 z m -5.2,-17.6 5.2,11.3 5.2,-11.3 -5.2,-11.3 z"
   id="path198" />
			<path
   class="st2"
   d="m 307.6,168 -8.1,-17.6 8.1,-17.6 8.1,17.6 z m -5.2,-17.6 5.2,11.3 5.2,-11.3 -5.2,-11.3 z"
   id="path199" />
			<path
   class="st2"
   d="m 320.8,168 -8.1,-17.6 8.1,-17.6 8.1,17.6 z m -5.2,-17.6 5.2,11.3 5.2,-11.3 -5.2,-11.3 z"
   id="path200" />
			<path
   class="st2"
   d="m 334.1,168 -8.1,-17.6 8.1,-17.6 8.1,17.6 z m -5.2,-17.6 5.2,11.3 5.2,-11.3 -5.2,-11.3 z"
   id="path201" />
			<path
   class="st2"
   d="m 347.3,168 -8.1,-17.6 8.1,-17.6 8.1,17.6 z m -5.2,-17.6 5.2,11.3 5.2,-11.3 -5.2,-11.3 z"
   id="path202" />
			<path
   class="st2"
   d="m 360.6,168 -8.1,-17.6 8.1,-17.6 8.1,17.6 z m -5.2,-17.6 5.2,11.3 5.2,-11.3 -5.2,-11.3 z"
   id="path203" />
			<path
   class="st2"
   d="m 373.9,168 -8.1,-17.6 8.1,-17.6 8.1,17.6 z m -5.2,-17.6 5.2,11.3 5.2,-11.3 -5.2,-11.3 z"
   id="path204" />
			<path
   class="st2"
   d="m 387.1,168 -8.1,-17.6 8.1,-17.6 8.1,17.6 z m -5.2,-17.6 5.2,11.3 5.2,-11.3 -5.2,-11.3 z"
   id="path205" />
			<path
   class="st2"
   d="m 400.4,168 -8.1,-17.6 8.1,-17.6 8.1,17.6 z m -5.2,-17.6 5.2,11.3 5.2,-11.3 -5.2,-11.3 z"
   id="path206" />
			<path
   class="st2"
   d="m 413.7,168 -8.1,-17.6 8.1,-17.6 8.1,17.6 z m -5.2,-17.6 5.2,11.3 5.2,-11.3 -5.2,-11.3 z"
   id="path207" />
			<path
   class="st2"
   d="m 426.9,168 -8.1,-17.6 8.1,-17.6 8.1,17.6 z m -5.2,-17.6 5.2,11.3 5.2,-11.3 -5.2,-11.3 z"
   id="path208" />
			<path
   class="st2"
   d="m 440.2,168 -8.1,-17.6 8.1,-17.6 8.1,17.6 z m -5.2,-17.6 5.2,11.3 5.2,-11.3 -5.2,-11.3 z"
   id="path209" />
			<path
   class="st2"
   d="m 453.5,168 -8.1,-17.6 8.1,-17.6 8.1,17.6 z m -5.2,-17.6 5.2,11.3 5.2,-11.3 -5.2,-11.3 z"
   id="path210" />
			<path
   class="st2"
   d="m 466.7,168 -8.1,-17.6 8.1,-17.6 8.1,17.6 z m -5.2,-17.6 5.2,11.3 5.2,-11.3 -5.2,-11.3 z"
   id="path211" />
			<path
   class="st2"
   d="m 480,168 -8.1,-17.6 8.1,-17.6 8.1,17.6 z m -5.2,-17.6 5.2,11.3 5.2,-11.3 -5.2,-11.3 z"
   id="path212" />
			<path
   class="st2"
   d="m 493.3,168 -8.1,-17.6 8.1,-17.6 8.1,17.6 z m -5.2,-17.6 5.2,11.3 5.2,-11.3 -5.2,-11.3 z"
   id="path213" />
			<path
   class="st2"
   d="m 506.5,168 -8.1,-17.6 8.1,-17.6 8.1,17.6 z m -5.2,-17.6 5.2,11.3 5.2,-11.3 -5.2,-11.3 z"
   id="path214" />
			<path
   class="st2"
   d="m 254.5,196.9 -8.1,-17.6 8.1,-17.6 8.1,17.6 z m -5.2,-17.6 5.2,11.3 5.2,-11.3 -5.2,-11.3 z"
   id="path215" />
			<path
   class="st2"
   d="m 267.8,196.9 -8.1,-17.6 8.1,-17.6 8.1,17.6 z m -5.2,-17.6 5.2,11.3 5.2,-11.3 -5.2,-11.3 z"
   id="path216" />
			<path
   class="st2"
   d="m 281,196.9 -8.1,-17.6 8.1,-17.6 8.1,17.6 z m -5.2,-17.6 5.2,11.3 5.2,-11.3 L 281,168 Z"
   id="path217" />
			<path
   class="st2"
   d="m 294.3,196.9 -8.1,-17.6 8.1,-17.6 8.1,17.6 z m -5.2,-17.6 5.2,11.3 5.2,-11.3 -5.2,-11.3 z"
   id="path218" />
			<path
   class="st2"
   d="m 307.6,196.9 -8.1,-17.6 8.1,-17.6 8.1,17.6 z m -5.2,-17.6 5.2,11.3 5.2,-11.3 -5.2,-11.3 z"
   id="path219" />
			<path
   class="st2"
   d="m 320.8,196.9 -8.1,-17.6 8.1,-17.6 8.1,17.6 z m -5.2,-17.6 5.2,11.3 5.2,-11.3 -5.2,-11.3 z"
   id="path220" />
			<path
   class="st2"
   d="m 334.1,196.9 -8.1,-17.6 8.1,-17.6 8.1,17.6 z m -5.2,-17.6 5.2,11.3 5.2,-11.3 -5.2,-11.3 z"
   id="path221" />
			<path
   class="st2"
   d="m 347.3,196.9 -8.1,-17.6 8.1,-17.6 8.1,17.6 z m -5.2,-17.6 5.2,11.3 5.2,-11.3 -5.2,-11.3 z"
   id="path222" />
			<path
   class="st2"
   d="m 360.6,196.9 -8.1,-17.6 8.1,-17.6 8.1,17.6 z m -5.2,-17.6 5.2,11.3 5.2,-11.3 -5.2,-11.3 z"
   id="path223" />
			<path
   class="st2"
   d="m 373.9,196.9 -8.1,-17.6 8.1,-17.6 8.1,17.6 z m -5.2,-17.6 5.2,11.3 5.2,-11.3 -5.2,-11.3 z"
   id="path224" />
			<path
   class="st2"
   d="m 387.1,196.9 -8.1,-17.6 8.1,-17.6 8.1,17.6 z m -5.2,-17.6 5.2,11.3 5.2,-11.3 -5.2,-11.3 z"
   id="path225" />
			<path
   class="st2"
   d="m 400.4,196.9 -8.1,-17.6 8.1,-17.6 8.1,17.6 z m -5.2,-17.6 5.2,11.3 5.2,-11.3 -5.2,-11.3 z"
   id="path226" />
			<path
   class="st2"
   d="m 413.7,196.9 -8.1,-17.6 8.1,-17.6 8.1,17.6 z m -5.2,-17.6 5.2,11.3 5.2,-11.3 -5.2,-11.3 z"
   id="path227" />
			<path
   class="st2"
   d="m 426.9,196.9 -8.1,-17.6 8.1,-17.6 8.1,17.6 z m -5.2,-17.6 5.2,11.3 5.2,-11.3 -5.2,-11.3 z"
   id="path228" />
			<path
   class="st2"
   d="m 440.2,196.9 -8.1,-17.6 8.1,-17.6 8.1,17.6 z m -5.2,-17.6 5.2,11.3 5.2,-11.3 -5.2,-11.3 z"
   id="path229" />
			<path
   class="st2"
   d="m 453.5,196.9 -8.1,-17.6 8.1,-17.6 8.1,17.6 z m -5.2,-17.6 5.2,11.3 5.2,-11.3 -5.2,-11.3 z"
   id="path230" />
			<path
   class="st2"
   d="m 466.7,196.9 -8.1,-17.6 8.1,-17.6 8.1,17.6 z m -5.2,-17.6 5.2,11.3 5.2,-11.3 -5.2,-11.3 z"
   id="path231" />
			<path
   class="st2"
   d="m 480,196.9 -8.1,-17.6 8.1,-17.6 8.1,17.6 z m -5.2,-17.6 5.2,11.3 5.2,-11.3 L 480,168 Z"
   id="path232" />
			<path
   class="st2"
   d="m 493.3,196.9 -8.1,-17.6 8.1,-17.6 8.1,17.6 z m -5.2,-17.6 5.2,11.3 5.2,-11.3 -5.2,-11.3 z"
   id="path233" />
			<path
   class="st2"
   d="m 506.5,196.9 -8.1,-17.6 8.1,-17.6 8.1,17.6 z m -5.2,-17.6 5.2,11.3 5.2,-11.3 -5.2,-11.3 z"
   id="path234" />
			<path
   class="st2"
   d="m 254.5,225.9 -8.1,-17.6 8.1,-17.6 8.1,17.6 z m -5.2,-17.6 5.2,11.3 5.2,-11.3 -5.2,-11.3 z"
   id="path235" />
			<path
   class="st2"
   d="m 267.8,225.9 -8.1,-17.6 8.1,-17.6 8.1,17.6 z m -5.2,-17.6 5.2,11.3 5.2,-11.3 -5.2,-11.3 z"
   id="path236" />
			<path
   class="st2"
   d="m 281,225.9 -8.1,-17.6 8.1,-17.6 8.1,17.6 z m -5.2,-17.6 5.2,11.3 5.2,-11.3 L 281,197 Z"
   id="path237" />
			<path
   class="st2"
   d="m 294.3,225.9 -8.1,-17.6 8.1,-17.6 8.1,17.6 z m -5.2,-17.6 5.2,11.3 5.2,-11.3 -5.2,-11.3 z"
   id="path238" />
			<path
   class="st2"
   d="m 307.6,225.9 -8.1,-17.6 8.1,-17.6 8.1,17.6 z m -5.2,-17.6 5.2,11.3 5.2,-11.3 -5.2,-11.3 z"
   id="path239" />
			<path
   class="st2"
   d="m 320.8,225.9 -8.1,-17.6 8.1,-17.6 8.1,17.6 z m -5.2,-17.6 5.2,11.3 5.2,-11.3 -5.2,-11.3 z"
   id="path240" />
			<path
   class="st2"
   d="m 334.1,225.9 -8.1,-17.6 8.1,-17.6 8.1,17.6 z m -5.2,-17.6 5.2,11.3 5.2,-11.3 -5.2,-11.3 z"
   id="path241" />
			<path
   class="st2"
   d="m 347.3,225.9 -8.1,-17.6 8.1,-17.6 8.1,17.6 z m -5.2,-17.6 5.2,11.3 5.2,-11.3 -5.2,-11.3 z"
   id="path242" />
			<path
   class="st2"
   d="m 360.6,225.9 -8.1,-17.6 8.1,-17.6 8.1,17.6 z m -5.2,-17.6 5.2,11.3 5.2,-11.3 -5.2,-11.3 z"
   id="path243" />
			<path
   class="st2"
   d="m 373.9,225.9 -8.1,-17.6 8.1,-17.6 8.1,17.6 z m -5.2,-17.6 5.2,11.3 5.2,-11.3 -5.2,-11.3 z"
   id="path244" />
			<path
   class="st2"
   d="m 387.1,225.9 -8.1,-17.6 8.1,-17.6 8.1,17.6 z m -5.2,-17.6 5.2,11.3 5.2,-11.3 -5.2,-11.3 z"
   id="path245" />
			<path
   class="st2"
   d="m 400.4,225.9 -8.1,-17.6 8.1,-17.6 8.1,17.6 z m -5.2,-17.6 5.2,11.3 5.2,-11.3 -5.2,-11.3 z"
   id="path246" />
			<path
   class="st2"
   d="m 413.7,225.9 -8.1,-17.6 8.1,-17.6 8.1,17.6 z m -5.2,-17.6 5.2,11.3 5.2,-11.3 -5.2,-11.3 z"
   id="path247" />
			<path
   class="st2"
   d="m 426.9,225.9 -8.1,-17.6 8.1,-17.6 8.1,17.6 z m -5.2,-17.6 5.2,11.3 5.2,-11.3 -5.2,-11.3 z"
   id="path248" />
			<path
   class="st2"
   d="m 440.2,225.9 -8.1,-17.6 8.1,-17.6 8.1,17.6 z m -5.2,-17.6 5.2,11.3 5.2,-11.3 -5.2,-11.3 z"
   id="path249" />
			<path
   class="st2"
   d="m 453.5,225.9 -8.1,-17.6 8.1,-17.6 8.1,17.6 z m -5.2,-17.6 5.2,11.3 5.2,-11.3 -5.2,-11.3 z"
   id="path250" />
			<path
   class="st2"
   d="m 466.7,225.9 -8.1,-17.6 8.1,-17.6 8.1,17.6 z m -5.2,-17.6 5.2,11.3 5.2,-11.3 -5.2,-11.3 z"
   id="path251" />
			<path
   class="st2"
   d="m 480,225.9 -8.1,-17.6 8.1,-17.6 8.1,17.6 z m -5.2,-17.6 5.2,11.3 5.2,-11.3 L 480,197 Z"
   id="path252" />
			<path
   class="st2"
   d="m 493.3,225.9 -8.1,-17.6 8.1,-17.6 8.1,17.6 z m -5.2,-17.6 5.2,11.3 5.2,-11.3 -5.2,-11.3 z"
   id="path253" />
			<path
   class="st2"
   d="m 506.5,225.9 -8.1,-17.6 8.1,-17.6 8.1,17.6 z m -5.2,-17.6 5.2,11.3 5.2,-11.3 -5.2,-11.3 z"
   id="path254" />
			<path
   class="st2"
   d="m 254.5,254.8 -8.1,-17.6 8.1,-17.6 8.1,17.6 z m -5.2,-17.6 5.2,11.3 5.2,-11.3 -5.2,-11.3 z"
   id="path255" />
			<path
   class="st2"
   d="m 267.8,254.8 -8.1,-17.6 8.1,-17.6 8.1,17.6 z m -5.2,-17.6 5.2,11.3 5.2,-11.3 -5.2,-11.3 z"
   id="path256" />
			<path
   class="st2"
   d="m 281,254.8 -8.1,-17.6 8.1,-17.6 8.1,17.6 z m -5.2,-17.6 5.2,11.3 5.2,-11.3 -5.2,-11.3 z"
   id="path257" />
			<path
   class="st2"
   d="m 294.3,254.8 -8.1,-17.6 8.1,-17.6 8.1,17.6 z m -5.2,-17.6 5.2,11.3 5.2,-11.3 -5.2,-11.3 z"
   id="path258" />
			<path
   class="st2"
   d="m 307.6,254.8 -8.1,-17.6 8.1,-17.6 8.1,17.6 z m -5.2,-17.6 5.2,11.3 5.2,-11.3 -5.2,-11.3 z"
   id="path259" />
			<path
   class="st2"
   d="m 320.8,254.8 -8.1,-17.6 8.1,-17.6 8.1,17.6 z m -5.2,-17.6 5.2,11.3 5.2,-11.3 -5.2,-11.3 z"
   id="path260" />
			<path
   class="st2"
   d="m 334.1,254.8 -8.1,-17.6 8.1,-17.6 8.1,17.6 z m -5.2,-17.6 5.2,11.3 5.2,-11.3 -5.2,-11.3 z"
   id="path261" />
			<path
   class="st2"
   d="m 347.3,254.8 -8.1,-17.6 8.1,-17.6 8.1,17.6 z m -5.2,-17.6 5.2,11.3 5.2,-11.3 -5.2,-11.3 z"
   id="path262" />
			<path
   class="st2"
   d="m 360.6,254.8 -8.1,-17.6 8.1,-17.6 8.1,17.6 z m -5.2,-17.6 5.2,11.3 5.2,-11.3 -5.2,-11.3 z"
   id="path263" />
			<path
   class="st2"
   d="m 373.9,254.8 -8.1,-17.6 8.1,-17.6 8.1,17.6 z m -5.2,-17.6 5.2,11.3 5.2,-11.3 -5.2,-11.3 z"
   id="path264" />
			<path
   class="st2"
   d="m 387.1,254.8 -8.1,-17.6 8.1,-17.6 8.1,17.6 z m -5.2,-17.6 5.2,11.3 5.2,-11.3 -5.2,-11.3 z"
   id="path265" />
			<path
   class="st2"
   d="m 400.4,254.8 -8.1,-17.6 8.1,-17.6 8.1,17.6 z m -5.2,-17.6 5.2,11.3 5.2,-11.3 -5.2,-11.3 z"
   id="path266" />
			<path
   class="st2"
   d="m 413.7,254.8 -8.1,-17.6 8.1,-17.6 8.1,17.6 z m -5.2,-17.6 5.2,11.3 5.2,-11.3 -5.2,-11.3 z"
   id="path267" />
			<path
   class="st2"
   d="m 426.9,254.8 -8.1,-17.6 8.1,-17.6 8.1,17.6 z m -5.2,-17.6 5.2,11.3 5.2,-11.3 -5.2,-11.3 z"
   id="path268" />
			<path
   class="st2"
   d="m 440.2,254.8 -8.1,-17.6 8.1,-17.6 8.1,17.6 z m -5.2,-17.6 5.2,11.3 5.2,-11.3 -5.2,-11.3 z"
   id="path269" />
			<path
   class="st2"
   d="m 453.5,254.8 -8.1,-17.6 8.1,-17.6 8.1,17.6 z m -5.2,-17.6 5.2,11.3 5.2,-11.3 -5.2,-11.3 z"
   id="path270" />
			<path
   class="st2"
   d="m 466.7,254.8 -8.1,-17.6 8.1,-17.6 8.1,17.6 z m -5.2,-17.6 5.2,11.3 5.2,-11.3 -5.2,-11.3 z"
   id="path271" />
			<path
   class="st2"
   d="m 480,254.8 -8.1,-17.6 8.1,-17.6 8.1,17.6 z m -5.2,-17.6 5.2,11.3 5.2,-11.3 -5.2,-11.3 z"
   id="path272" />
			<path
   class="st2"
   d="m 493.3,254.8 -8.1,-17.6 8.1,-17.6 8.1,17.6 z m -5.2,-17.6 5.2,11.3 5.2,-11.3 -5.2,-11.3 z"
   id="path273" />
			<path
   class="st2"
   d="m 506.5,254.8 -8.1,-17.6 8.1,-17.6 8.1,17.6 z m -5.2,-17.6 5.2,11.3 5.2,-11.3 -5.2,-11.3 z"
   id="path274" />
			<path
   class="st2"
   d="m 254.5,283.7 -8.1,-17.6 8.1,-17.6 8.1,17.6 z m -5.2,-17.6 5.2,11.3 5.2,-11.3 -5.2,-11.3 z"
   id="path275" />
			<path
   class="st2"
   d="m 267.8,283.7 -8.1,-17.6 8.1,-17.6 8.1,17.6 z m -5.2,-17.6 5.2,11.3 5.2,-11.3 -5.2,-11.3 z"
   id="path276" />
			<path
   class="st2"
   d="m 281,283.7 -8.1,-17.6 8.1,-17.6 8.1,17.6 z m -5.2,-17.6 5.2,11.3 5.2,-11.3 -5.2,-11.3 z"
   id="path277" />
			<path
   class="st2"
   d="m 294.3,283.7 -8.1,-17.6 8.1,-17.6 8.1,17.6 z m -5.2,-17.6 5.2,11.3 5.2,-11.3 -5.2,-11.3 z"
   id="path278" />
			<path
   class="st2"
   d="m 307.6,283.7 -8.1,-17.6 8.1,-17.6 8.1,17.6 z m -5.2,-17.6 5.2,11.3 5.2,-11.3 -5.2,-11.3 z"
   id="path279" />
			<path
   class="st2"
   d="m 320.8,283.7 -8.1,-17.6 8.1,-17.6 8.1,17.6 z m -5.2,-17.6 5.2,11.3 5.2,-11.3 -5.2,-11.3 z"
   id="path280" />
			<path
   class="st2"
   d="m 334.1,283.7 -8.1,-17.6 8.1,-17.6 8.1,17.6 z m -5.2,-17.6 5.2,11.3 5.2,-11.3 -5.2,-11.3 z"
   id="path281" />
			<path
   class="st2"
   d="m 347.3,283.7 -8.1,-17.6 8.1,-17.6 8.1,17.6 z m -5.2,-17.6 5.2,11.3 5.2,-11.3 -5.2,-11.3 z"
   id="path282" />
			<path
   class="st2"
   d="m 360.6,283.7 -8.1,-17.6 8.1,-17.6 8.1,17.6 z m -5.2,-17.6 5.2,11.3 5.2,-11.3 -5.2,-11.3 z"
   id="path283" />
			<path
   class="st2"
   d="m 373.9,283.7 -8.1,-17.6 8.1,-17.6 8.1,17.6 z m -5.2,-17.6 5.2,11.3 5.2,-11.3 -5.2,-11.3 z"
   id="path284" />
			<path
   class="st2"
   d="m 387.1,283.7 -8.1,-17.6 8.1,-17.6 8.1,17.6 z m -5.2,-17.6 5.2,11.3 5.2,-11.3 -5.2,-11.3 z"
   id="path285" />
			<path
   class="st2"
   d="m 400.4,283.7 -8.1,-17.6 8.1,-17.6 8.1,17.6 z m -5.2,-17.6 5.2,11.3 5.2,-11.3 -5.2,-11.3 z"
   id="path286" />
			<path
   class="st2"
   d="m 413.7,283.7 -8.1,-17.6 8.1,-17.6 8.1,17.6 z m -5.2,-17.6 5.2,11.3 5.2,-11.3 -5.2,-11.3 z"
   id="path287" />
			<path
   class="st2"
   d="m 426.9,283.7 -8.1,-17.6 8.1,-17.6 8.1,17.6 z m -5.2,-17.6 5.2,11.3 5.2,-11.3 -5.2,-11.3 z"
   id="path288" />
			<path
   class="st2"
   d="m 440.2,283.7 -8.1,-17.6 8.1,-17.6 8.1,17.6 z m -5.2,-17.6 5.2,11.3 5.2,-11.3 -5.2,-11.3 z"
   id="path289" />
			<path
   class="st2"
   d="m 453.5,283.7 -8.1,-17.6 8.1,-17.6 8.1,17.6 z m -5.2,-17.6 5.2,11.3 5.2,-11.3 -5.2,-11.3 z"
   id="path290" />
			<path
   class="st2"
   d="m 466.7,283.7 -8.1,-17.6 8.1,-17.6 8.1,17.6 z m -5.2,-17.6 5.2,11.3 5.2,-11.3 -5.2,-11.3 z"
   id="path291" />
			<path
   class="st2"
   d="m 480,283.7 -8.1,-17.6 8.1,-17.6 8.1,17.6 z m -5.2,-17.6 5.2,11.3 5.2,-11.3 -5.2,-11.3 z"
   id="path292" />
			<path
   class="st2"
   d="m 493.3,283.7 -8.1,-17.6 8.1,-17.6 8.1,17.6 z m -5.2,-17.6 5.2,11.3 5.2,-11.3 -5.2,-11.3 z"
   id="path293" />
			<path
   class="st2"
   d="m 506.5,283.7 -8.1,-17.6 8.1,-17.6 8.1,17.6 z m -5.2,-17.6 5.2,11.3 5.2,-11.3 -5.2,-11.3 z"
   id="path294" />
			<path
   class="st2"
   d="m 254.5,312.7 -8.1,-17.6 8.1,-17.6 8.1,17.6 z m -5.2,-17.6 5.2,11.3 5.2,-11.3 -5.2,-11.3 z"
   id="path295" />
			<path
   class="st2"
   d="m 267.8,312.7 -8.1,-17.6 8.1,-17.6 8.1,17.6 z m -5.2,-17.6 5.2,11.3 5.2,-11.3 -5.2,-11.3 z"
   id="path296" />
			<path
   class="st2"
   d="m 281,312.7 -8.1,-17.6 8.1,-17.6 8.1,17.6 z m -5.2,-17.6 5.2,11.3 5.2,-11.3 -5.2,-11.3 z"
   id="path297" />
			<path
   class="st2"
   d="m 294.3,312.7 -8.1,-17.6 8.1,-17.6 8.1,17.6 z m -5.2,-17.6 5.2,11.3 5.2,-11.3 -5.2,-11.3 z"
   id="path298" />
			<path
   class="st2"
   d="m 307.6,312.7 -8.1,-17.6 8.1,-17.6 8.1,17.6 z m -5.2,-17.6 5.2,11.3 5.2,-11.3 -5.2,-11.3 z"
   id="path299" />
			<path
   class="st2"
   d="m 320.8,312.7 -8.1,-17.6 8.1,-17.6 8.1,17.6 z m -5.2,-17.6 5.2,11.3 5.2,-11.3 -5.2,-11.3 z"
   id="path300" />
			<path
   class="st2"
   d="m 334.1,312.7 -8.1,-17.6 8.1,-17.6 8.1,17.6 z m -5.2,-17.6 5.2,11.3 5.2,-11.3 -5.2,-11.3 z"
   id="path301" />
			<path
   class="st2"
   d="m 347.3,312.7 -8.1,-17.6 8.1,-17.6 8.1,17.6 z m -5.2,-17.6 5.2,11.3 5.2,-11.3 -5.2,-11.3 z"
   id="path302" />
			<path
   class="st2"
   d="m 360.6,312.7 -8.1,-17.6 8.1,-17.6 8.1,17.6 z m -5.2,-17.6 5.2,11.3 5.2,-11.3 -5.2,-11.3 z"
   id="path303" />
			<path
   class="st2"
   d="m 373.9,312.7 -8.1,-17.6 8.1,-17.6 8.1,17.6 z m -5.2,-17.6 5.2,11.3 5.2,-11.3 -5.2,-11.3 z"
   id="path304" />
			<path
   class="st2"
   d="m 387.1,312.7 -8.1,-17.6 8.1,-17.6 8.1,17.6 z m -5.2,-17.6 5.2,11.3 5.2,-11.3 -5.2,-11.3 z"
   id="path305" />
			<path
   class="st2"
   d="m 400.4,312.7 -8.1,-17.6 8.1,-17.6 8.1,17.6 z m -5.2,-17.6 5.2,11.3 5.2,-11.3 -5.2,-11.3 z"
   id="path306" />
			<path
   class="st2"
   d="m 413.7,312.7 -8.1,-17.6 8.1,-17.6 8.1,17.6 z m -5.2,-17.6 5.2,11.3 5.2,-11.3 -5.2,-11.3 z"
   id="path307" />
			<path
   class="st2"
   d="m 426.9,312.7 -8.1,-17.6 8.1,-17.6 8.1,17.6 z m -5.2,-17.6 5.2,11.3 5.2,-11.3 -5.2,-11.3 z"
   id="path308" />
			<path
   class="st2"
   d="m 440.2,312.7 -8.1,-17.6 8.1,-17.6 8.1,17.6 z m -5.2,-17.6 5.2,11.3 5.2,-11.3 -5.2,-11.3 z"
   id="path309" />
			<path
   class="st2"
   d="m 453.5,312.7 -8.1,-17.6 8.1,-17.6 8.1,17.6 z m -5.2,-17.6 5.2,11.3 5.2,-11.3 -5.2,-11.3 z"
   id="path310" />
			<path
   class="st2"
   d="m 466.7,312.7 -8.1,-17.6 8.1,-17.6 8.1,17.6 z m -5.2,-17.6 5.2,11.3 5.2,-11.3 -5.2,-11.3 z"
   id="path311" />
			<path
   class="st2"
   d="m 480,312.7 -8.1,-17.6 8.1,-17.6 8.1,17.6 z m -5.2,-17.6 5.2,11.3 5.2,-11.3 -5.2,-11.3 z"
   id="path312" />
			<path
   class="st2"
   d="m 493.3,312.7 -8.1,-17.6 8.1,-17.6 8.1,17.6 z m -5.2,-17.6 5.2,11.3 5.2,-11.3 -5.2,-11.3 z"
   id="path313" />
			<path
   class="st2"
   d="m 506.5,312.7 -8.1,-17.6 8.1,-17.6 8.1,17.6 z m -5.2,-17.6 5.2,11.3 5.2,-11.3 -5.2,-11.3 z"
   id="path314" />
			<path
   class="st2"
   d="m 254.5,341.6 -8.1,-17.6 8.1,-17.6 8.1,17.6 z m -5.2,-17.6 5.2,11.3 5.2,-11.3 -5.2,-11.3 z"
   id="path315" />
			<path
   class="st2"
   d="m 267.8,341.6 -8.1,-17.6 8.1,-17.6 8.1,17.6 z m -5.2,-17.6 5.2,11.3 5.2,-11.3 -5.2,-11.3 z"
   id="path316" />
			<path
   class="st2"
   d="m 281,341.6 -8,-17.6 8.1,-17.6 8.1,17.6 z M 275.8,324 281,335.3 286.2,324 281,312.7 Z"
   id="path317" />
			<path
   class="st2"
   d="m 294.3,341.6 -8.1,-17.6 8.1,-17.6 8.1,17.6 z m -5.2,-17.6 5.2,11.3 5.2,-11.3 -5.2,-11.3 z"
   id="path318" />
			<path
   class="st2"
   d="m 307.6,341.6 -8.1,-17.6 8.1,-17.6 8.1,17.6 z m -5.2,-17.6 5.2,11.3 5.2,-11.3 -5.2,-11.3 z"
   id="path319" />
			<path
   class="st2"
   d="m 320.8,341.6 -8.1,-17.6 8.1,-17.6 8.1,17.6 z m -5.2,-17.6 5.2,11.3 5.2,-11.3 -5.2,-11.3 z"
   id="path320" />
			<path
   class="st2"
   d="M 334.1,341.6 326,324 l 8.1,-17.6 8.1,17.6 z m -5.2,-17.6 5.2,11.3 5.2,-11.3 -5.2,-11.3 z"
   id="path321" />
			<path
   class="st2"
   d="m 347.3,341.6 -8.1,-17.6 8.1,-17.6 8.1,17.6 z m -5.2,-17.6 5.2,11.3 5.2,-11.3 -5.2,-11.3 z"
   id="path322" />
			<path
   class="st2"
   d="m 360.6,341.6 -8.1,-17.6 8.1,-17.6 8.1,17.6 z m -5.2,-17.6 5.2,11.3 5.2,-11.3 -5.2,-11.3 z"
   id="path323" />
			<path
   class="st2"
   d="m 373.9,341.6 -8.1,-17.6 8.1,-17.6 8.1,17.6 z m -5.2,-17.6 5.2,11.3 5.2,-11.3 -5.2,-11.3 z"
   id="path324" />
			<path
   class="st2"
   d="M 387.1,341.6 379,324 l 8.1,-17.6 8.1,17.6 z m -5.2,-17.6 5.2,11.3 5.2,-11.3 -5.2,-11.3 z"
   id="path325" />
			<path
   class="st2"
   d="m 400.4,341.6 -8.1,-17.6 8.1,-17.6 8.1,17.6 z m -5.2,-17.6 5.2,11.3 5.2,-11.3 -5.2,-11.3 z"
   id="path326" />
			<path
   class="st2"
   d="m 413.7,341.6 -8.1,-17.6 8.1,-17.6 8.1,17.6 z m -5.2,-17.6 5.2,11.3 5.2,-11.3 -5.2,-11.3 z"
   id="path327" />
			<path
   class="st2"
   d="m 426.9,341.6 -8.1,-17.6 8.1,-17.6 8.1,17.6 z m -5.2,-17.6 5.2,11.3 5.2,-11.3 -5.2,-11.3 z"
   id="path328" />
			<path
   class="st2"
   d="m 440.2,341.6 -8.1,-17.6 8.1,-17.6 8.1,17.6 z M 435,324 l 5.2,11.3 5.2,-11.3 -5.2,-11.3 z"
   id="path329" />
			<path
   class="st2"
   d="m 453.5,341.6 -8.1,-17.6 8.1,-17.6 8.1,17.6 z m -5.2,-17.6 5.2,11.3 5.2,-11.3 -5.2,-11.3 z"
   id="path330" />
			<path
   class="st2"
   d="m 466.7,341.6 -8.1,-17.6 8.1,-17.6 8.1,17.6 z m -5.2,-17.6 5.2,11.3 5.2,-11.3 -5.2,-11.3 z"
   id="path331" />
			<path
   class="st2"
   d="M 480,341.6 471.9,324 480,306.4 488.1,324 Z M 474.8,324 480,335.3 485.2,324 480,312.7 Z"
   id="path332" />
			<path
   class="st2"
   d="m 493.3,341.6 -8.1,-17.6 8.1,-17.6 8.1,17.6 z m -5.2,-17.6 5.2,11.3 5.2,-11.3 -5.2,-11.3 z"
   id="path333" />
			<path
   class="st2"
   d="m 506.5,341.6 -8.1,-17.6 8.1,-17.6 8.1,17.6 z m -5.2,-17.6 5.2,11.3 5.2,-11.3 -5.2,-11.3 z"
   id="path334" />
			<path
   class="st2"
   d="m 254.5,370.5 -8.1,-17.6 8.1,-17.6 8.1,17.6 z m -5.2,-17.6 5.2,11.3 5.2,-11.3 -5.2,-11.3 z"
   id="path335" />
			<path
   class="st2"
   d="m 267.8,370.5 -8.1,-17.6 8.1,-17.6 8.1,17.6 z m -5.2,-17.6 5.2,11.3 5.2,-11.3 -5.2,-11.3 z"
   id="path336" />
			<path
   class="st2"
   d="m 281,370.5 -8.1,-17.6 8.1,-17.6 8.1,17.6 z m -5.2,-17.6 5.2,11.3 5.2,-11.3 -5.2,-11.3 z"
   id="path337" />
			<path
   class="st2"
   d="m 294.3,370.5 -8.1,-17.6 8.1,-17.6 8.1,17.6 z m -5.2,-17.6 5.2,11.3 5.2,-11.3 -5.2,-11.3 z"
   id="path338" />
			<path
   class="st2"
   d="m 307.6,370.5 -8.1,-17.6 8.1,-17.6 8.1,17.6 z m -5.2,-17.6 5.2,11.3 5.2,-11.3 -5.2,-11.3 z"
   id="path339" />
			<path
   class="st2"
   d="m 320.8,370.5 -8.1,-17.6 8.1,-17.6 8.1,17.6 z m -5.2,-17.6 5.2,11.3 5.2,-11.3 -5.2,-11.3 z"
   id="path340" />
			<path
   class="st2"
   d="m 334.1,370.5 -8.1,-17.6 8.1,-17.6 8.1,17.6 z m -5.2,-17.6 5.2,11.3 5.2,-11.3 -5.2,-11.3 z"
   id="path341" />
			<path
   class="st2"
   d="m 347.3,370.5 -8.1,-17.6 8.1,-17.6 8.1,17.6 z m -5.2,-17.6 5.2,11.3 5.2,-11.3 -5.2,-11.3 z"
   id="path342" />
			<path
   class="st2"
   d="m 360.6,370.5 -8.1,-17.6 8.1,-17.6 8.1,17.6 z m -5.2,-17.6 5.2,11.3 5.2,-11.3 -5.2,-11.3 z"
   id="path343" />
			<path
   class="st2"
   d="m 373.9,370.5 -8.1,-17.6 8.1,-17.6 8.1,17.6 z m -5.2,-17.6 5.2,11.3 5.2,-11.3 -5.2,-11.3 z"
   id="path344" />
			<path
   class="st2"
   d="m 387.1,370.5 -8.1,-17.6 8.1,-17.6 8.1,17.6 z m -5.2,-17.6 5.2,11.3 5.2,-11.3 -5.2,-11.3 z"
   id="path345" />
			<path
   class="st2"
   d="m 400.4,370.5 -8.1,-17.6 8.1,-17.6 8.1,17.6 z m -5.2,-17.6 5.2,11.3 5.2,-11.3 -5.2,-11.3 z"
   id="path346" />
			<path
   class="st2"
   d="m 413.7,370.5 -8.1,-17.6 8.1,-17.6 8.1,17.6 z m -5.2,-17.6 5.2,11.3 5.2,-11.3 -5.2,-11.3 z"
   id="path347" />
			<path
   class="st2"
   d="m 426.9,370.5 -8.1,-17.6 8.1,-17.6 8.1,17.6 z m -5.2,-17.6 5.2,11.3 5.2,-11.3 -5.2,-11.3 z"
   id="path348" />
			<path
   class="st2"
   d="m 440.2,370.5 -8.1,-17.6 8.1,-17.6 8.1,17.6 z m -5.2,-17.6 5.2,11.3 5.2,-11.3 -5.2,-11.3 z"
   id="path349" />
			<path
   class="st2"
   d="m 453.5,370.5 -8.1,-17.6 8.1,-17.6 8.1,17.6 z m -5.2,-17.6 5.2,11.3 5.2,-11.3 -5.2,-11.3 z"
   id="path350" />
			<path
   class="st2"
   d="m 466.7,370.5 -8.1,-17.6 8.1,-17.6 8.1,17.6 z m -5.2,-17.6 5.2,11.3 5.2,-11.3 -5.2,-11.3 z"
   id="path351" />
			<path
   class="st2"
   d="m 480,370.5 -8.1,-17.6 8.1,-17.6 8.1,17.6 z m -5.2,-17.6 5.2,11.3 5.2,-11.3 -5.2,-11.3 z"
   id="path352" />
			<path
   class="st2"
   d="m 493.3,370.5 -8.1,-17.6 8.1,-17.6 8.1,17.6 z m -5.2,-17.6 5.2,11.3 5.2,-11.3 -5.2,-11.3 z"
   id="path353" />
			<path
   class="st2"
   d="m 506.5,370.5 -8.1,-17.6 8.1,-17.6 8.1,17.6 z m -5.2,-17.6 5.2,11.3 5.2,-11.3 -5.2,-11.3 z"
   id="path354" />
			<path
   class="st2"
   d="m 254.5,399.5 -8.1,-17.6 8.1,-17.6 8.1,17.6 z m -5.2,-17.6 5.2,11.3 5.2,-11.3 -5.2,-11.3 z"
   id="path355" />
			<path
   class="st2"
   d="m 267.8,399.5 -8.1,-17.6 8.1,-17.6 8.1,17.6 z m -5.2,-17.6 5.2,11.3 5.2,-11.3 -5.2,-11.3 z"
   id="path356" />
			<path
   class="st2"
   d="m 281,399.5 -8.1,-17.6 8.1,-17.6 8.1,17.6 z m -5.2,-17.6 5.2,11.3 5.2,-11.3 -5.2,-11.3 z"
   id="path357" />
			<path
   class="st2"
   d="m 294.3,399.5 -8.1,-17.6 8.1,-17.6 8.1,17.6 z m -5.2,-17.6 5.2,11.3 5.2,-11.3 -5.2,-11.3 z"
   id="path358" />
			<path
   class="st2"
   d="m 307.6,399.5 -8.1,-17.6 8.1,-17.6 8.1,17.6 z m -5.2,-17.6 5.2,11.3 5.2,-11.3 -5.2,-11.3 z"
   id="path359" />
			<path
   class="st2"
   d="m 320.8,399.5 -8.1,-17.6 8.1,-17.6 8.1,17.6 z m -5.2,-17.6 5.2,11.3 5.2,-11.3 -5.2,-11.3 z"
   id="path360" />
			<path
   class="st2"
   d="m 334.1,399.5 -8.1,-17.6 8.1,-17.6 8.1,17.6 z m -5.2,-17.6 5.2,11.3 5.2,-11.3 -5.2,-11.3 z"
   id="path361" />
			<path
   class="st2"
   d="m 347.3,399.5 -8.1,-17.6 8.1,-17.6 8.1,17.6 z m -5.2,-17.6 5.2,11.3 5.2,-11.3 -5.2,-11.3 z"
   id="path362" />
			<path
   class="st2"
   d="m 360.6,399.5 -8.1,-17.6 8.1,-17.6 8.1,17.6 z m -5.2,-17.6 5.2,11.3 5.2,-11.3 -5.2,-11.3 z"
   id="path363" />
			<path
   class="st2"
   d="m 373.9,399.5 -8.1,-17.6 8.1,-17.6 8.1,17.6 z m -5.2,-17.6 5.2,11.3 5.2,-11.3 -5.2,-11.3 z"
   id="path364" />
			<path
   class="st2"
   d="m 387.1,399.5 -8.1,-17.6 8.1,-17.6 8.1,17.6 z m -5.2,-17.6 5.2,11.3 5.2,-11.3 -5.2,-11.3 z"
   id="path365" />
			<path
   class="st2"
   d="m 400.4,399.5 -8.1,-17.6 8.1,-17.6 8.1,17.6 z m -5.2,-17.6 5.2,11.3 5.2,-11.3 -5.2,-11.3 z"
   id="path366" />
			<path
   class="st2"
   d="m 413.7,399.5 -8.1,-17.6 8.1,-17.6 8.1,17.6 z m -5.2,-17.6 5.2,11.3 5.2,-11.3 -5.2,-11.3 z"
   id="path367" />
			<path
   class="st2"
   d="m 426.9,399.5 -8.1,-17.6 8.1,-17.6 8.1,17.6 z m -5.2,-17.6 5.2,11.3 5.2,-11.3 -5.2,-11.3 z"
   id="path368" />
			<path
   class="st2"
   d="m 440.2,399.5 -8.1,-17.6 8.1,-17.6 8.1,17.6 z m -5.2,-17.6 5.2,11.3 5.2,-11.3 -5.2,-11.3 z"
   id="path369" />
			<path
   class="st2"
   d="m 453.5,399.5 -8.1,-17.6 8.1,-17.6 8.1,17.6 z m -5.2,-17.6 5.2,11.3 5.2,-11.3 -5.2,-11.3 z"
   id="path370" />
			<path
   class="st2"
   d="m 466.7,399.5 -8.1,-17.6 8.1,-17.6 8.1,17.6 z m -5.2,-17.6 5.2,11.3 5.2,-11.3 -5.2,-11.3 z"
   id="path371" />
			<path
   class="st2"
   d="m 480,399.5 -8.1,-17.6 8.1,-17.6 8.1,17.6 z m -5.2,-17.6 5.2,11.3 5.2,-11.3 -5.2,-11.3 z"
   id="path372" />
			<path
   class="st2"
   d="m 493.3,399.5 -8.1,-17.6 8.1,-17.6 8.1,17.6 z m -5.2,-17.6 5.2,11.3 5.2,-11.3 -5.2,-11.3 z"
   id="path373" />
			<path
   class="st2"
   d="m 506.5,399.5 -8.1,-17.6 8.1,-17.6 8.1,17.6 z m -5.2,-17.6 5.2,11.3 5.2,-11.3 -5.2,-11.3 z"
   id="path374" />
			<path
   class="st2"
   d="m 254.5,428.4 -8.1,-17.6 8.1,-17.6 8.1,17.6 z m -5.2,-17.6 5.2,11.3 5.2,-11.3 -5.2,-11.3 z"
   id="path375" />
			<path
   class="st2"
   d="m 267.8,428.4 -8.1,-17.6 8.1,-17.6 8.1,17.6 z m -5.2,-17.6 5.2,11.3 5.2,-11.3 -5.2,-11.3 z"
   id="path376" />
			<path
   class="st2"
   d="m 281,428.4 -8.1,-17.6 8.1,-17.6 8.1,17.6 z m -5.2,-17.6 5.2,11.3 5.2,-11.3 -5.2,-11.3 z"
   id="path377" />
			<path
   class="st2"
   d="m 294.3,428.4 -8.1,-17.6 8.1,-17.6 8.1,17.6 z m -5.2,-17.6 5.2,11.3 5.2,-11.3 -5.2,-11.3 z"
   id="path378" />
			<path
   class="st2"
   d="m 307.6,428.4 -8.1,-17.6 8.1,-17.6 8.1,17.6 z m -5.2,-17.6 5.2,11.3 5.2,-11.3 -5.2,-11.3 z"
   id="path379" />
			<path
   class="st2"
   d="m 320.8,428.4 -8.1,-17.6 8.1,-17.6 8.1,17.6 z m -5.2,-17.6 5.2,11.3 5.2,-11.3 -5.2,-11.3 z"
   id="path380" />
			<path
   class="st2"
   d="m 334.1,428.4 -8.1,-17.6 8.1,-17.6 8.1,17.6 z m -5.2,-17.6 5.2,11.3 5.2,-11.3 -5.2,-11.3 z"
   id="path381" />
			<path
   class="st2"
   d="m 347.3,428.4 -8.1,-17.6 8.1,-17.6 8.1,17.6 z m -5.2,-17.6 5.2,11.3 5.2,-11.3 -5.2,-11.3 z"
   id="path382" />
			<path
   class="st2"
   d="m 360.6,428.4 -8.1,-17.6 8.1,-17.6 8.1,17.6 z m -5.2,-17.6 5.2,11.3 5.2,-11.3 -5.2,-11.3 z"
   id="path383" />
			<path
   class="st2"
   d="m 373.9,428.4 -8.1,-17.6 8.1,-17.6 8.1,17.6 z m -5.2,-17.6 5.2,11.3 5.2,-11.3 -5.2,-11.3 z"
   id="path384" />
			<path
   class="st2"
   d="m 387.1,428.4 -8.1,-17.6 8.1,-17.6 8.1,17.6 z m -5.2,-17.6 5.2,11.3 5.2,-11.3 -5.2,-11.3 z"
   id="path385" />
			<path
   class="st2"
   d="m 400.4,428.4 -8.1,-17.6 8.1,-17.6 8.1,17.6 z m -5.2,-17.6 5.2,11.3 5.2,-11.3 -5.2,-11.3 z"
   id="path386" />
			<path
   class="st2"
   d="m 413.7,428.4 -8.1,-17.6 8.1,-17.6 8.1,17.6 z m -5.2,-17.6 5.2,11.3 5.2,-11.3 -5.2,-11.3 z"
   id="path387" />
			<path
   class="st2"
   d="m 426.9,428.4 -8.1,-17.6 8.1,-17.6 8.1,17.6 z m -5.2,-17.6 5.2,11.3 5.2,-11.3 -5.2,-11.3 z"
   id="path388" />
			<path
   class="st2"
   d="m 440.2,428.4 -8.1,-17.6 8.1,-17.6 8.1,17.6 z m -5.2,-17.6 5.2,11.3 5.2,-11.3 -5.2,-11.3 z"
   id="path389" />
			<path
   class="st2"
   d="m 453.5,428.4 -8.1,-17.6 8.1,-17.6 8.1,17.6 z m -5.2,-17.6 5.2,11.3 5.2,-11.3 -5.2,-11.3 z"
   id="path390" />
			<path
   class="st2"
   d="m 466.7,428.4 -8.1,-17.6 8.1,-17.6 8.1,17.6 z m -5.2,-17.6 5.2,11.3 5.2,-11.3 -5.2,-11.3 z"
   id="path391" />
			<path
   class="st2"
   d="m 480,428.4 -8.1,-17.6 8.1,-17.6 8.1,17.6 z m -5.2,-17.6 5.2,11.3 5.2,-11.3 -5.2,-11.3 z"
   id="path392" />
			<path
   class="st2"
   d="m 493.3,428.4 -8.1,-17.6 8.1,-17.6 8.1,17.6 z m -5.2,-17.6 5.2,11.3 5.2,-11.3 -5.2,-11.3 z"
   id="path393" />
			<path
   class="st2"
   d="m 506.5,428.4 -8.1,-17.6 8.1,-17.6 8.1,17.6 z m -5.2,-17.6 5.2,11.3 5.2,-11.3 -5.2,-11.3 z"
   id="path394" />
			<path
   class="st2"
   d="m 254.5,457.3 -8.1,-17.6 8.1,-17.6 8.1,17.6 z m -5.2,-17.6 5.2,11.3 5.2,-11.3 -5.2,-11.3 z"
   id="path395" />
			<path
   class="st2"
   d="m 267.8,457.3 -8.1,-17.6 8.1,-17.6 8.1,17.6 z m -5.2,-17.6 5.2,11.3 5.2,-11.3 -5.2,-11.3 z"
   id="path396" />
			<path
   class="st2"
   d="m 281,457.3 -8.1,-17.6 8.1,-17.6 8.1,17.6 z m -5.2,-17.6 5.2,11.3 5.2,-11.3 -5.2,-11.3 z"
   id="path397" />
			<path
   class="st2"
   d="m 294.3,457.3 -8.1,-17.6 8.1,-17.6 8.1,17.6 z m -5.2,-17.6 5.2,11.3 5.2,-11.3 -5.2,-11.3 z"
   id="path398" />
			<path
   class="st2"
   d="m 307.6,457.3 -8.1,-17.6 8.1,-17.6 8.1,17.6 z m -5.2,-17.6 5.2,11.3 5.2,-11.3 -5.2,-11.3 z"
   id="path399" />
			<path
   class="st2"
   d="m 320.8,457.3 -8.1,-17.6 8.1,-17.6 8.1,17.6 z m -5.2,-17.6 5.2,11.3 5.2,-11.3 -5.2,-11.3 z"
   id="path400" />
			<path
   class="st2"
   d="m 334.1,457.3 -8.1,-17.6 8.1,-17.6 8.1,17.6 z m -5.2,-17.6 5.2,11.3 5.2,-11.3 -5.2,-11.3 z"
   id="path401" />
			<path
   class="st2"
   d="m 347.3,457.3 -8.1,-17.6 8.1,-17.6 8.1,17.6 z m -5.2,-17.6 5.2,11.3 5.2,-11.3 -5.2,-11.3 z"
   id="path402" />
			<path
   class="st2"
   d="m 360.6,457.3 -8.1,-17.6 8.1,-17.6 8.1,17.6 z m -5.2,-17.6 5.2,11.3 5.2,-11.3 -5.2,-11.3 z"
   id="path403" />
			<path
   class="st2"
   d="m 373.9,457.3 -8.1,-17.6 8.1,-17.6 8.1,17.6 z m -5.2,-17.6 5.2,11.3 5.2,-11.3 -5.2,-11.3 z"
   id="path404" />
			<path
   class="st2"
   d="m 387.1,457.3 -8.1,-17.6 8.1,-17.6 8.1,17.6 z m -5.2,-17.6 5.2,11.3 5.2,-11.3 -5.2,-11.3 z"
   id="path405" />
			<path
   class="st2"
   d="m 400.4,457.3 -8.1,-17.6 8.1,-17.6 8.1,17.6 z m -5.2,-17.6 5.2,11.3 5.2,-11.3 -5.2,-11.3 z"
   id="path406" />
			<path
   class="st2"
   d="m 413.7,457.3 -8.1,-17.6 8.1,-17.6 8.1,17.6 z m -5.2,-17.6 5.2,11.3 5.2,-11.3 -5.2,-11.3 z"
   id="path407" />
			<path
   class="st2"
   d="m 426.9,457.3 -8.1,-17.6 8.1,-17.6 8.1,17.6 z m -5.2,-17.6 5.2,11.3 5.2,-11.3 -5.2,-11.3 z"
   id="path408" />
			<path
   class="st2"
   d="m 440.2,457.3 -8.1,-17.6 8.1,-17.6 8.1,17.6 z m -5.2,-17.6 5.2,11.3 5.2,-11.3 -5.2,-11.3 z"
   id="path409" />
			<path
   class="st2"
   d="m 453.5,457.3 -8.1,-17.6 8.1,-17.6 8.1,17.6 z m -5.2,-17.6 5.2,11.3 5.2,-11.3 -5.2,-11.3 z"
   id="path410" />
			<path
   class="st2"
   d="m 466.7,457.3 -8.1,-17.6 8.1,-17.6 8.1,17.6 z m -5.2,-17.6 5.2,11.3 5.2,-11.3 -5.2,-11.3 z"
   id="path411" />
			<path
   class="st2"
   d="m 480,457.3 -8.1,-17.6 8.1,-17.6 8.1,17.6 z m -5.2,-17.6 5.2,11.3 5.2,-11.3 -5.2,-11.3 z"
   id="path412" />
			<path
   class="st2"
   d="m 493.3,457.3 -8.1,-17.6 8.1,-17.6 8.1,17.6 z m -5.2,-17.6 5.2,11.3 5.2,-11.3 -5.2,-11.3 z"
   id="path413" />
			<path
   class="st2"
   d="m 506.5,457.3 -8.1,-17.6 8.1,-17.6 8.1,17.6 z m -5.2,-17.6 5.2,11.3 5.2,-11.3 -5.2,-11.3 z"
   id="path414" />
			<path
   class="st2"
   d="m 254.5,486.3 -8.1,-17.6 8.1,-17.6 8.1,17.6 z m -5.2,-17.6 5.2,11.3 5.2,-11.3 -5.2,-11.3 z"
   id="path415" />
			<path
   class="st2"
   d="m 267.8,486.3 -8.1,-17.6 8.1,-17.6 8.1,17.6 z m -5.2,-17.6 5.2,11.3 5.2,-11.3 -5.2,-11.3 z"
   id="path416" />
			<path
   class="st2"
   d="m 281,486.3 -8.1,-17.6 8.1,-17.6 8.1,17.6 z m -5.2,-17.6 5.2,11.3 5.2,-11.3 -5.2,-11.3 z"
   id="path417" />
			<path
   class="st2"
   d="m 294.3,486.3 -8.1,-17.6 8.1,-17.6 8.1,17.6 z m -5.2,-17.6 5.2,11.3 5.2,-11.3 -5.2,-11.3 z"
   id="path418" />
			<path
   class="st2"
   d="m 307.6,486.3 -8.1,-17.6 8.1,-17.6 8.1,17.6 z m -5.2,-17.6 5.2,11.3 5.2,-11.3 -5.2,-11.3 z"
   id="path419" />
			<path
   class="st2"
   d="m 320.8,486.3 -8.1,-17.6 8.1,-17.6 8.1,17.6 z m -5.2,-17.6 5.2,11.3 5.2,-11.3 -5.2,-11.3 z"
   id="path420" />
			<path
   class="st2"
   d="m 334.1,486.3 -8.1,-17.6 8.1,-17.6 8.1,17.6 z m -5.2,-17.6 5.2,11.3 5.2,-11.3 -5.2,-11.3 z"
   id="path421" />
			<path
   class="st2"
   d="m 347.3,486.3 -8.1,-17.6 8.1,-17.6 8.1,17.6 z m -5.2,-17.6 5.2,11.3 5.2,-11.3 -5.2,-11.3 z"
   id="path422" />
			<path
   class="st2"
   d="m 360.6,486.3 -8.1,-17.6 8.1,-17.6 8.1,17.6 z m -5.2,-17.6 5.2,11.3 5.2,-11.3 -5.2,-11.3 z"
   id="path423" />
			<path
   class="st2"
   d="m 373.9,486.3 -8.1,-17.6 8.1,-17.6 8.1,17.6 z m -5.2,-17.6 5.2,11.3 5.2,-11.3 -5.2,-11.3 z"
   id="path424" />
			<path
   class="st2"
   d="m 387.1,486.3 -8.1,-17.6 8.1,-17.6 8.1,17.6 z m -5.2,-17.6 5.2,11.3 5.2,-11.3 -5.2,-11.3 z"
   id="path425" />
			<path
   class="st2"
   d="m 400.4,486.3 -8.1,-17.6 8.1,-17.6 8.1,17.6 z m -5.2,-17.6 5.2,11.3 5.2,-11.3 -5.2,-11.3 z"
   id="path426" />
			<path
   class="st2"
   d="m 413.7,486.3 -8.1,-17.6 8.1,-17.6 8.1,17.6 z m -5.2,-17.6 5.2,11.3 5.2,-11.3 -5.2,-11.3 z"
   id="path427" />
			<path
   class="st2"
   d="m 426.9,486.3 -8.1,-17.6 8.1,-17.6 8.1,17.6 z m -5.2,-17.6 5.2,11.3 5.2,-11.3 -5.2,-11.3 z"
   id="path428" />
			<path
   class="st2"
   d="m 440.2,486.3 -8.1,-17.6 8.1,-17.6 8.1,17.6 z m -5.2,-17.6 5.2,11.3 5.2,-11.3 -5.2,-11.3 z"
   id="path429" />
			<path
   class="st2"
   d="m 453.5,486.3 -8.1,-17.6 8.1,-17.6 8.1,17.6 z m -5.2,-17.6 5.2,11.3 5.2,-11.3 -5.2,-11.3 z"
   id="path430" />
			<path
   class="st2"
   d="m 466.7,486.3 -8.1,-17.6 8.1,-17.6 8.1,17.6 z m -5.2,-17.6 5.2,11.3 5.2,-11.3 -5.2,-11.3 z"
   id="path431" />
			<path
   class="st2"
   d="m 480,486.3 -8.1,-17.6 8.1,-17.6 8.1,17.6 z m -5.2,-17.6 5.2,11.3 5.2,-11.3 -5.2,-11.3 z"
   id="path432" />
			<path
   class="st2"
   d="m 493.3,486.3 -8.1,-17.6 8.1,-17.6 8.1,17.6 z m -5.2,-17.6 5.2,11.3 5.2,-11.3 -5.2,-11.3 z"
   id="path433" />
			<path
   class="st2"
   d="m 506.5,486.3 -8.1,-17.6 8.1,-17.6 8.1,17.6 z m -5.2,-17.6 5.2,11.3 5.2,-11.3 -5.2,-11.3 z"
   id="path434" />
		</g>
	</g>
</g>




</svg>
